<svg width="168" height="33" viewBox="0 0 168 33" fill="none" xmlns="http://www.w3.org/2000/svg">
<path d="M48.448 29.324C47.026 29.324 45.703 29.063 44.479 28.541C43.273 28.019 42.22 27.299 41.32 26.381C40.438 25.445 39.745 24.347 39.241 23.087C38.737 21.827 38.485 20.441 38.485 18.929C38.485 17.435 38.728 16.058 39.214 14.798C39.718 13.52 40.42 12.422 41.32 11.504C42.22 10.568 43.273 9.848 44.479 9.344C45.685 8.822 47.008 8.561 48.448 8.561C49.87 8.561 51.139 8.804 52.255 9.29C53.389 9.776 54.343 10.415 55.117 11.207C55.891 11.981 56.449 12.827 56.791 13.745L53.929 15.095C53.497 14.015 52.804 13.142 51.85 12.476C50.914 11.792 49.78 11.45 48.448 11.45C47.116 11.45 45.937 11.765 44.911 12.395C43.885 13.025 43.084 13.898 42.508 15.014C41.95 16.13 41.671 17.435 41.671 18.929C41.671 20.423 41.95 21.737 42.508 22.871C43.084 23.987 43.885 24.86 44.911 25.49C45.937 26.102 47.116 26.408 48.448 26.408C49.78 26.408 50.914 26.075 51.85 25.409C52.804 24.743 53.497 23.87 53.929 22.79L56.791 24.14C56.449 25.04 55.891 25.886 55.117 26.678C54.343 27.47 53.389 28.109 52.255 28.595C51.139 29.081 49.87 29.324 48.448 29.324ZM59.7703 29V8.561H62.8213V17.255L62.3353 16.877C62.6953 15.959 63.2713 15.266 64.0633 14.798C64.8553 14.312 65.7733 14.069 66.8173 14.069C67.8973 14.069 68.8513 14.303 69.6793 14.771C70.5073 15.239 71.1553 15.887 71.6233 16.715C72.0913 17.543 72.3253 18.488 72.3253 19.55V29H69.3013V20.387C69.3013 19.649 69.1573 19.028 68.8693 18.524C68.5993 18.002 68.2213 17.606 67.7353 17.336C67.2493 17.048 66.6913 16.904 66.0613 16.904C65.4493 16.904 64.8913 17.048 64.3873 17.336C63.9013 17.606 63.5143 18.002 63.2263 18.524C62.9563 19.046 62.8213 19.667 62.8213 20.387V29H59.7703ZM82.4486 29.324C80.9906 29.324 79.6946 28.991 78.5606 28.325C77.4446 27.641 76.5716 26.723 75.9416 25.571C75.3116 24.401 74.9966 23.096 74.9966 21.656C74.9966 20.18 75.3116 18.875 75.9416 17.741C76.5896 16.607 77.4536 15.716 78.5336 15.068C79.6136 14.402 80.8376 14.069 82.2056 14.069C83.3036 14.069 84.2846 14.258 85.1486 14.636C86.0126 15.014 86.7416 15.536 87.3356 16.202C87.9296 16.85 88.3796 17.597 88.6856 18.443C89.0096 19.289 89.1716 20.189 89.1716 21.143C89.1716 21.377 89.1626 21.62 89.1446 21.872C89.1266 22.124 89.0906 22.358 89.0366 22.574H77.3996V20.144H87.3086L85.8506 21.251C86.0306 20.369 85.9676 19.586 85.6616 18.902C85.3736 18.2 84.9236 17.651 84.3116 17.255C83.7176 16.841 83.0156 16.634 82.2056 16.634C81.3956 16.634 80.6756 16.841 80.0456 17.255C79.4156 17.651 78.9296 18.227 78.5876 18.983C78.2456 19.721 78.1106 20.621 78.1826 21.683C78.0926 22.673 78.2276 23.537 78.5876 24.275C78.9656 25.013 79.4876 25.589 80.1536 26.003C80.8376 26.417 81.6116 26.624 82.4756 26.624C83.3576 26.624 84.1046 26.426 84.7166 26.03C85.3466 25.634 85.8416 25.121 86.2016 24.491L88.6856 25.706C88.3976 26.39 87.9476 27.011 87.3356 27.569C86.7416 28.109 86.0216 28.541 85.1756 28.865C84.3476 29.171 83.4386 29.324 82.4486 29.324ZM93.7962 29V17.147H91.0962V14.393H93.7962V13.637C93.7962 12.539 94.0212 11.621 94.4712 10.883C94.9212 10.127 95.5422 9.551 96.3342 9.155C97.1442 8.759 98.0712 8.561 99.1152 8.561C99.3132 8.561 99.5382 8.579 99.7902 8.615C100.042 8.633 100.249 8.66 100.411 8.696V11.342C100.267 11.306 100.105 11.288 99.9252 11.288C99.7452 11.27 99.6012 11.261 99.4932 11.261C98.6832 11.261 98.0352 11.45 97.5492 11.828C97.0632 12.188 96.8202 12.791 96.8202 13.637V14.393H100.168V17.147H96.8202V29H93.7962ZM103.309 29V8.885H106.279L113.839 19.361H112.354L119.779 8.885H122.749V29H119.59V12.638L120.778 12.962L113.191 23.33H112.867L105.442 12.962L106.495 12.638V29H103.309ZM130.985 29.324C129.995 29.324 129.122 29.153 128.366 28.811C127.628 28.451 127.052 27.965 126.638 27.353C126.224 26.723 126.017 25.985 126.017 25.139C126.017 24.347 126.188 23.636 126.53 23.006C126.89 22.376 127.439 21.845 128.177 21.413C128.915 20.981 129.842 20.675 130.958 20.495L136.034 19.658V22.061L131.552 22.844C130.742 22.988 130.148 23.249 129.77 23.627C129.392 23.987 129.203 24.455 129.203 25.031C129.203 25.589 129.41 26.048 129.824 26.408C130.256 26.75 130.805 26.921 131.471 26.921C132.299 26.921 133.019 26.741 133.631 26.381C134.261 26.021 134.747 25.544 135.089 24.95C135.431 24.338 135.602 23.663 135.602 22.925V19.172C135.602 18.452 135.332 17.867 134.792 17.417C134.27 16.949 133.568 16.715 132.686 16.715C131.876 16.715 131.165 16.931 130.553 17.363C129.959 17.777 129.518 18.317 129.23 18.983L126.692 17.714C126.962 16.994 127.403 16.364 128.015 15.824C128.627 15.266 129.338 14.834 130.148 14.528C130.976 14.222 131.849 14.069 132.767 14.069C133.919 14.069 134.936 14.285 135.818 14.717C136.718 15.149 137.411 15.752 137.897 16.526C138.401 17.282 138.653 18.164 138.653 19.172V29H135.737V26.354L136.358 26.435C136.016 27.029 135.575 27.542 135.035 27.974C134.513 28.406 133.91 28.739 133.226 28.973C132.56 29.207 131.813 29.324 130.985 29.324ZM148.275 29.162C146.745 29.162 145.557 28.73 144.711 27.866C143.865 27.002 143.442 25.787 143.442 24.221V17.147H140.877V14.393H141.282C141.966 14.393 142.497 14.195 142.875 13.799C143.253 13.403 143.442 12.863 143.442 12.179V11.045H146.493V14.393H149.814V17.147H146.493V24.086C146.493 24.59 146.574 25.022 146.736 25.382C146.898 25.724 147.159 25.994 147.519 26.192C147.879 26.372 148.347 26.462 148.923 26.462C149.067 26.462 149.229 26.453 149.409 26.435C149.589 26.417 149.76 26.399 149.922 26.381V29C149.67 29.036 149.391 29.072 149.085 29.108C148.779 29.144 148.509 29.162 148.275 29.162ZM159.494 29.324C158.036 29.324 156.74 28.991 155.606 28.325C154.49 27.641 153.617 26.723 152.987 25.571C152.357 24.401 152.042 23.096 152.042 21.656C152.042 20.18 152.357 18.875 152.987 17.741C153.635 16.607 154.499 15.716 155.579 15.068C156.659 14.402 157.883 14.069 159.251 14.069C160.349 14.069 161.33 14.258 162.194 14.636C163.058 15.014 163.787 15.536 164.381 16.202C164.975 16.85 165.425 17.597 165.731 18.443C166.055 19.289 166.217 20.189 166.217 21.143C166.217 21.377 166.208 21.62 166.19 21.872C166.172 22.124 166.136 22.358 166.082 22.574H154.445V20.144H164.354L162.896 21.251C163.076 20.369 163.013 19.586 162.707 18.902C162.419 18.2 161.969 17.651 161.357 17.255C160.763 16.841 160.061 16.634 159.251 16.634C158.441 16.634 157.721 16.841 157.091 17.255C156.461 17.651 155.975 18.227 155.633 18.983C155.291 19.721 155.156 20.621 155.228 21.683C155.138 22.673 155.273 23.537 155.633 24.275C156.011 25.013 156.533 25.589 157.199 26.003C157.883 26.417 158.657 26.624 159.521 26.624C160.403 26.624 161.15 26.426 161.762 26.03C162.392 25.634 162.887 25.121 163.247 24.491L165.731 25.706C165.443 26.39 164.993 27.011 164.381 27.569C163.787 28.109 163.067 28.541 162.221 28.865C161.393 29.171 160.484 29.324 159.494 29.324Z" fill="#094817"/>
<path fill-rule="evenodd" clip-rule="evenodd" d="M7.26523 4.62649C4.24464 5.2866 2 7.75847 2 10.7069C2 13.3401 3.79029 15.5932 6.32471 16.5151L6.32203 18.1569C5.52938 19.5704 5.07743 21.2007 5.07743 22.9365C5.07743 28.3414 9.45902 32.7228 14.864 32.7228C20.2689 32.7228 24.6505 28.3414 24.6505 22.9365C24.6505 21.3432 24.2698 19.8389 23.5943 18.5095L23.5943 16.6094C26.1715 15.7064 28 13.4334 28 10.7723C28 7.79295 25.7081 5.30024 22.6396 4.67171C20.8502 1.25545 16.9745 -0.617045 13.1537 0.183996C10.5645 0.72684 8.44529 2.40422 7.26523 4.62649ZM7.69047 22.9365C7.69047 21.4757 8.12717 20.1168 8.87717 18.9834H20.8508C21.6008 20.1168 22.0375 21.4757 22.0375 22.9365C22.0375 26.8982 18.8259 30.1098 14.864 30.1098C10.9021 30.1098 7.69047 26.8982 7.69047 22.9365ZM22.0133 14.1604V14.1538C24.0012 13.7893 25.2076 12.232 25.2076 10.7723C25.2076 9.10537 23.6344 7.31127 21.121 7.31127C20.9432 7.31127 20.7702 7.32025 20.602 7.33752C20.534 6.40869 20.2717 5.58941 19.8151 4.91299C18.4215 3.21208 16.1201 2.28042 13.6997 2.78787C12.2101 3.10016 10.9807 3.89349 10.1172 4.95104C9.7023 5.60696 9.46256 6.39017 9.39802 7.27217C9.22986 7.25489 9.05677 7.24591 8.87898 7.24591C6.36558 7.24591 4.79246 9.04002 4.79246 10.7069C4.79246 12.2311 6.10775 13.8617 8.25453 14.1297V14.1612L9.2419 14.1628L9.2383 16.3703H20.681L20.681 14.1604L22.0133 14.1604ZM12.7571 22.8831C13.3069 22.8402 13.7877 23.2489 13.835 23.7973L13.8352 23.799C13.8357 23.8042 13.8371 23.8162 13.8397 23.834C13.845 23.8699 13.8548 23.9276 13.8718 23.9994C13.9067 24.1473 13.9666 24.3324 14.0633 24.5074C14.236 24.8198 14.5074 25.0987 15.115 25.0987C15.7226 25.0987 15.994 24.8198 16.1667 24.5074C16.2635 24.3324 16.3234 24.1473 16.3583 23.9994C16.3753 23.9276 16.3851 23.8699 16.3903 23.834C16.3929 23.8162 16.3943 23.8042 16.3949 23.799L16.3951 23.7973C16.4423 23.2489 16.9232 22.8402 17.473 22.8831C18.0255 22.9262 18.4385 23.4091 18.3953 23.9617L17.3949 23.8836C18.3953 23.9617 18.3953 23.9621 18.3953 23.9626L18.3952 23.9636L18.395 23.9658L18.3946 23.9707L18.3935 23.9832C18.3926 23.9926 18.3914 24.0042 18.3899 24.0179C18.3869 24.0452 18.3826 24.0809 18.3763 24.1237C18.3639 24.2092 18.3437 24.3248 18.3115 24.461C18.2481 24.7292 18.1331 25.0987 17.9232 25.4784C17.4826 26.2754 16.6141 27.1057 15.115 27.1057C13.616 27.1057 12.7474 26.2754 12.3069 25.4784C12.097 25.0987 11.9819 24.7292 11.9185 24.461C11.8864 24.3248 11.8662 24.2092 11.8537 24.1238C11.8475 24.0809 11.8431 24.0452 11.8401 24.0179C11.8386 24.0042 11.8375 23.9926 11.8366 23.9832L11.8355 23.9707L11.835 23.9658L11.8349 23.9636L11.8348 23.9626C11.8348 23.9621 11.8347 23.9617 12.8352 23.8836L11.8347 23.9617C11.7916 23.4091 12.2045 22.9262 12.7571 22.8831Z" fill="#094817"/>
</svg>
