<svg width="50" height="51" viewBox="0 0 50 51" fill="none" xmlns="http://www.w3.org/2000/svg">
<path d="M29.584 20.1277C29.584 20.1277 28.7498 19.706 27.9175 19.706C26.6672 19.706 25.0007 21.3972 25.0007 23.9364C25.0007 26.4747 27.2832 28.1668 29.584 28.1668C31.8848 28.1668 34.1673 26.4747 34.1673 23.9364C34.1673 21.3982 32.5008 19.7051 31.2505 19.7051C30.4172 19.7051 29.584 20.1286 29.584 20.1286C29.584 18.8599 30.4181 17.1677 32.0837 17.1677M23.7677 12.5835C24.5891 12.5835 25.2555 11.9675 25.2555 11.2085C25.2555 10.4495 24.5882 9.8335 23.7677 9.8335H18.8086C17.9872 9.8335 17.3217 10.4495 17.3217 11.2085C17.3217 11.9675 17.9872 12.5835 18.8095 12.5835M24.2389 12.5129C25.1152 14.1317 25.8339 15.5929 26.2739 17.1668C26.31 17.2952 26.3439 17.4244 26.3757 17.5546M23.5597 28.1668H19.8013C16.5187 28.1668 15.834 27.5343 15.834 24.5002V20.6291C15.834 17.5124 16.8405 15.229 18.3136 12.5056" stroke="#094817" stroke-width="1.5" stroke-linecap="round" stroke-linejoin="round"/>
<path d="M0.693 49V42.295H1.755V49H0.693ZM3.04615 49V44.131H4.01815V45.085L3.90115 44.959C4.02115 44.653 4.21315 44.422 4.47715 44.266C4.74115 44.104 5.04715 44.023 5.39515 44.023C5.75515 44.023 6.07315 44.101 6.34915 44.257C6.62515 44.413 6.84115 44.629 6.99715 44.905C7.15315 45.181 7.23115 45.499 7.23115 45.859V49H6.22315V46.129C6.22315 45.883 6.17815 45.676 6.08815 45.508C5.99815 45.334 5.86915 45.202 5.70115 45.112C5.53915 45.016 5.35315 44.968 5.14315 44.968C4.93315 44.968 4.74415 45.016 4.57615 45.112C4.41415 45.202 4.28815 45.334 4.19815 45.508C4.10815 45.682 4.06315 45.889 4.06315 46.129V49H3.04615ZM10.6686 50.98C10.3146 50.98 9.98759 50.923 9.68759 50.809C9.38759 50.695 9.12959 50.536 8.91359 50.332C8.69759 50.134 8.53559 49.9 8.42759 49.63L9.36359 49.243C9.44759 49.471 9.60059 49.66 9.82259 49.81C10.0506 49.96 10.3296 50.035 10.6596 50.035C10.9176 50.035 11.1486 49.984 11.3526 49.882C11.5566 49.786 11.7186 49.642 11.8386 49.45C11.9586 49.264 12.0186 49.039 12.0186 48.775V47.677L12.1986 47.884C12.0306 48.196 11.7966 48.433 11.4966 48.595C11.2026 48.757 10.8696 48.838 10.4976 48.838C10.0476 48.838 9.64259 48.733 9.28259 48.523C8.92259 48.313 8.63759 48.025 8.42759 47.659C8.22359 47.293 8.12159 46.882 8.12159 46.426C8.12159 45.964 8.22359 45.553 8.42759 45.193C8.63759 44.833 8.91959 44.548 9.27359 44.338C9.62759 44.128 10.0326 44.023 10.4886 44.023C10.8606 44.023 11.1906 44.104 11.4786 44.266C11.7726 44.422 12.0126 44.65 12.1986 44.95L12.0636 45.202V44.131H13.0266V48.775C13.0266 49.195 12.9246 49.57 12.7206 49.9C12.5226 50.236 12.2466 50.5 11.8926 50.692C11.5386 50.884 11.1306 50.98 10.6686 50.98ZM10.6146 47.893C10.8846 47.893 11.1246 47.83 11.3346 47.704C11.5446 47.572 11.7096 47.398 11.8296 47.182C11.9556 46.96 12.0186 46.711 12.0186 46.435C12.0186 46.159 11.9556 45.91 11.8296 45.688C11.7036 45.466 11.5356 45.292 11.3256 45.166C11.1156 45.034 10.8786 44.968 10.6146 44.968C10.3386 44.968 10.0926 45.034 9.87659 45.166C9.66059 45.292 9.48959 45.466 9.36359 45.688C9.24359 45.904 9.18359 46.153 9.18359 46.435C9.18359 46.705 9.24359 46.951 9.36359 47.173C9.48959 47.395 9.66059 47.572 9.87659 47.704C10.0926 47.83 10.3386 47.893 10.6146 47.893ZM14.217 49V44.131H15.189V45.112L15.099 44.968C15.207 44.65 15.381 44.422 15.621 44.284C15.861 44.14 16.149 44.068 16.485 44.068H16.782V44.995H16.359C16.023 44.995 15.75 45.1 15.54 45.31C15.336 45.514 15.234 45.808 15.234 46.192V49H14.217ZM19.7638 49.108C19.2778 49.108 18.8458 48.997 18.4678 48.775C18.0958 48.547 17.8048 48.241 17.5948 47.857C17.3848 47.467 17.2798 47.032 17.2798 46.552C17.2798 46.06 17.3848 45.625 17.5948 45.247C17.8108 44.869 18.0988 44.572 18.4588 44.356C18.8188 44.134 19.2268 44.023 19.6828 44.023C20.0488 44.023 20.3758 44.086 20.6638 44.212C20.9518 44.338 21.1948 44.512 21.3928 44.734C21.5908 44.95 21.7408 45.199 21.8428 45.481C21.9508 45.763 22.0048 46.063 22.0048 46.381C22.0048 46.459 22.0018 46.54 21.9958 46.624C21.9898 46.708 21.9778 46.786 21.9598 46.858H18.0808V46.048H21.3838L20.8978 46.417C20.9578 46.123 20.9368 45.862 20.8348 45.634C20.7388 45.4 20.5888 45.217 20.3848 45.085C20.1868 44.947 19.9528 44.878 19.6828 44.878C19.4128 44.878 19.1728 44.947 18.9628 45.085C18.7528 45.217 18.5908 45.409 18.4768 45.661C18.3628 45.907 18.3178 46.207 18.3418 46.561C18.3118 46.891 18.3568 47.179 18.4768 47.425C18.6028 47.671 18.7768 47.863 18.9988 48.001C19.2268 48.139 19.4848 48.208 19.7728 48.208C20.0668 48.208 20.3158 48.142 20.5198 48.01C20.7298 47.878 20.8948 47.707 21.0148 47.497L21.8428 47.902C21.7468 48.13 21.5968 48.337 21.3928 48.523C21.1948 48.703 20.9548 48.847 20.6728 48.955C20.3968 49.057 20.0938 49.108 19.7638 49.108ZM25.2473 49.108C24.7793 49.108 24.3593 48.997 23.9873 48.775C23.6213 48.547 23.3303 48.241 23.1143 47.857C22.9043 47.473 22.7993 47.041 22.7993 46.561C22.7993 46.081 22.9073 45.649 23.1233 45.265C23.3393 44.881 23.6303 44.578 23.9963 44.356C24.3623 44.134 24.7763 44.023 25.2383 44.023C25.6283 44.023 25.9733 44.101 26.2733 44.257C26.5733 44.413 26.8103 44.629 26.9843 44.905L26.8313 45.139V42.187H27.8393V49H26.8763V48.01L26.9933 48.199C26.8253 48.493 26.5853 48.718 26.2733 48.874C25.9613 49.03 25.6193 49.108 25.2473 49.108ZM25.3463 48.163C25.6283 48.163 25.8803 48.094 26.1023 47.956C26.3303 47.818 26.5073 47.629 26.6333 47.389C26.7653 47.143 26.8313 46.867 26.8313 46.561C26.8313 46.255 26.7653 45.982 26.6333 45.742C26.5073 45.502 26.3303 45.313 26.1023 45.175C25.8803 45.037 25.6283 44.968 25.3463 44.968C25.0643 44.968 24.8093 45.037 24.5813 45.175C24.3533 45.313 24.1763 45.502 24.0503 45.742C23.9243 45.982 23.8613 46.255 23.8613 46.561C23.8613 46.867 23.9243 47.143 24.0503 47.389C24.1763 47.629 24.3503 47.818 24.5723 47.956C24.8003 48.094 25.0583 48.163 25.3463 48.163ZM29.0266 49V44.131H30.0436V49H29.0266ZM29.0266 43.465V42.295H30.0436V43.465H29.0266ZM33.5187 49.108C33.0327 49.108 32.6007 48.997 32.2227 48.775C31.8507 48.547 31.5597 48.241 31.3497 47.857C31.1397 47.467 31.0347 47.032 31.0347 46.552C31.0347 46.06 31.1397 45.625 31.3497 45.247C31.5657 44.869 31.8537 44.572 32.2137 44.356C32.5737 44.134 32.9817 44.023 33.4377 44.023C33.8037 44.023 34.1307 44.086 34.4187 44.212C34.7067 44.338 34.9497 44.512 35.1477 44.734C35.3457 44.95 35.4957 45.199 35.5977 45.481C35.7057 45.763 35.7597 46.063 35.7597 46.381C35.7597 46.459 35.7567 46.54 35.7507 46.624C35.7447 46.708 35.7327 46.786 35.7147 46.858H31.8357V46.048H35.1387L34.6527 46.417C34.7127 46.123 34.6917 45.862 34.5897 45.634C34.4937 45.4 34.3437 45.217 34.1397 45.085C33.9417 44.947 33.7077 44.878 33.4377 44.878C33.1677 44.878 32.9277 44.947 32.7177 45.085C32.5077 45.217 32.3457 45.409 32.2317 45.661C32.1177 45.907 32.0727 46.207 32.0967 46.561C32.0667 46.891 32.1117 47.179 32.2317 47.425C32.3577 47.671 32.5317 47.863 32.7537 48.001C32.9817 48.139 33.2397 48.208 33.5277 48.208C33.8217 48.208 34.0707 48.142 34.2747 48.01C34.4847 47.878 34.6497 47.707 34.7697 47.497L35.5977 47.902C35.5017 48.13 35.3517 48.337 35.1477 48.523C34.9497 48.703 34.7097 48.847 34.4277 48.955C34.1517 49.057 33.8487 49.108 33.5187 49.108ZM36.7522 49V44.131H37.7242V45.085L37.6072 44.959C37.7272 44.653 37.9192 44.422 38.1832 44.266C38.4472 44.104 38.7532 44.023 39.1012 44.023C39.4612 44.023 39.7792 44.101 40.0552 44.257C40.3312 44.413 40.5472 44.629 40.7032 44.905C40.8592 45.181 40.9372 45.499 40.9372 45.859V49H39.9292V46.129C39.9292 45.883 39.8842 45.676 39.7942 45.508C39.7042 45.334 39.5752 45.202 39.4072 45.112C39.2452 45.016 39.0592 44.968 38.8492 44.968C38.6392 44.968 38.4502 45.016 38.2822 45.112C38.1202 45.202 37.9942 45.334 37.9042 45.508C37.8142 45.682 37.7692 45.889 37.7692 46.129V49H36.7522ZM44.1316 49.054C43.6216 49.054 43.2256 48.91 42.9436 48.622C42.6616 48.334 42.5206 47.929 42.5206 47.407V45.049H41.6656V44.131H41.8006C42.0286 44.131 42.2056 44.065 42.3316 43.933C42.4576 43.801 42.5206 43.621 42.5206 43.393V43.015H43.5376V44.131H44.6446V45.049H43.5376V47.362C43.5376 47.53 43.5646 47.674 43.6186 47.794C43.6726 47.908 43.7596 47.998 43.8796 48.064C43.9996 48.124 44.1556 48.154 44.3476 48.154C44.3956 48.154 44.4496 48.151 44.5096 48.145C44.5696 48.139 44.6266 48.133 44.6806 48.127V49C44.5966 49.012 44.5036 49.024 44.4016 49.036C44.2996 49.048 44.2096 49.054 44.1316 49.054ZM47.4731 49.108C46.9751 49.108 46.5371 48.985 46.1591 48.739C45.7871 48.493 45.5261 48.163 45.3761 47.749L46.1591 47.38C46.2911 47.656 46.4711 47.875 46.6991 48.037C46.9331 48.199 47.1911 48.28 47.4731 48.28C47.7131 48.28 47.9081 48.226 48.0581 48.118C48.2081 48.01 48.2831 47.863 48.2831 47.677C48.2831 47.557 48.2501 47.461 48.1841 47.389C48.1181 47.311 48.0341 47.248 47.9321 47.2C47.8361 47.152 47.7371 47.116 47.6351 47.092L46.8701 46.876C46.4501 46.756 46.1351 46.576 45.9251 46.336C45.7211 46.09 45.6191 45.805 45.6191 45.481C45.6191 45.187 45.6941 44.932 45.8441 44.716C45.9941 44.494 46.2011 44.323 46.4651 44.203C46.7291 44.083 47.0261 44.023 47.3561 44.023C47.8001 44.023 48.1961 44.134 48.5441 44.356C48.8921 44.572 49.1381 44.875 49.2821 45.265L48.4991 45.634C48.4031 45.4 48.2501 45.214 48.0401 45.076C47.8361 44.938 47.6051 44.869 47.3471 44.869C47.1251 44.869 46.9481 44.923 46.8161 45.031C46.6841 45.133 46.6181 45.268 46.6181 45.436C46.6181 45.55 46.6481 45.646 46.7081 45.724C46.7681 45.796 46.8461 45.856 46.9421 45.904C47.0381 45.946 47.1371 45.982 47.2391 46.012L48.0311 46.246C48.4331 46.36 48.7421 46.54 48.9581 46.786C49.1741 47.026 49.2821 47.314 49.2821 47.65C49.2821 47.938 49.2041 48.193 49.0481 48.415C48.8981 48.631 48.6881 48.802 48.4181 48.928C48.1481 49.048 47.8331 49.108 47.4731 49.108Z" fill="#094817"/>
</svg>
