<svg width="16" height="17" viewBox="0 0 16 17" fill="none" xmlns="http://www.w3.org/2000/svg">
<path d="M1 4.42856H14.7143" stroke="#D25645" stroke-width="1.5" stroke-linecap="round" stroke-linejoin="round"/>
<path d="M2.71484 4.42856H13.0006V14.7143C13.0006 15.0174 12.8801 15.3081 12.6658 15.5224C12.4515 15.7367 12.1608 15.8571 11.8577 15.8571H3.8577C3.5546 15.8571 3.26391 15.7367 3.04958 15.5224C2.83525 15.3081 2.71484 15.0174 2.71484 14.7143V4.42856Z" stroke="#D25645" stroke-width="1.5" stroke-linecap="round" stroke-linejoin="round"/>
<path d="M5 4.42857V3.85714C5 3.09938 5.30102 2.37266 5.83684 1.83684C6.37266 1.30102 7.09938 1 7.85714 1C8.6149 1 9.34163 1.30102 9.87745 1.83684C10.4133 2.37266 10.7143 3.09938 10.7143 3.85714V4.42857" stroke="#D25645" stroke-width="1.5" stroke-linecap="round" stroke-linejoin="round"/>
<path d="M6.14258 6.71429V13" stroke="#D25645" stroke-width="1.5" stroke-linecap="round" stroke-linejoin="round"/>
<path d="M9.57227 6.71429V13" stroke="#D25645" stroke-width="1.5" stroke-linecap="round" stroke-linejoin="round"/>
</svg>
