<svg width="26" height="33" viewBox="0 0 26 33" fill="none" xmlns="http://www.w3.org/2000/svg">
<path fill-rule="evenodd" clip-rule="evenodd" d="M5.26523 4.62649C2.24464 5.2866 0 7.75847 0 10.7069C0 13.3401 1.79029 15.5932 4.32471 16.5151L4.32203 18.1569C3.52938 19.5704 3.07743 21.2007 3.07743 22.9365C3.07743 28.3414 7.45902 32.7228 12.864 32.7228C18.2689 32.7228 22.6505 28.3414 22.6505 22.9365C22.6505 21.3432 22.2698 19.8389 21.5943 18.5095L21.5943 16.6094C24.1715 15.7064 26 13.4334 26 10.7723C26 7.79295 23.7081 5.30024 20.6396 4.67171C18.8502 1.25545 14.9745 -0.617045 11.1537 0.183996C8.56448 0.72684 6.44529 2.40422 5.26523 4.62649ZM5.69047 22.9365C5.69047 21.4757 6.12717 20.1168 6.87717 18.9834H18.8508C19.6008 20.1168 20.0375 21.4757 20.0375 22.9365C20.0375 26.8982 16.8259 30.1098 12.864 30.1098C8.9021 30.1098 5.69047 26.8982 5.69047 22.9365ZM20.0133 14.1604V14.1538C22.0012 13.7893 23.2076 12.232 23.2076 10.7723C23.2076 9.10537 21.6344 7.31127 19.121 7.31127C18.9432 7.31127 18.7702 7.32025 18.602 7.33752C18.534 6.40869 18.2717 5.58941 17.8151 4.91299C16.4215 3.21208 14.1201 2.28042 11.6997 2.78787C10.2101 3.10016 8.98074 3.89349 8.11724 4.95104C7.7023 5.60696 7.46256 6.39017 7.39802 7.27217C7.22986 7.25489 7.05677 7.24591 6.87898 7.24591C4.36558 7.24591 2.79246 9.04002 2.79246 10.7069C2.79246 12.2311 4.10775 13.8617 6.25453 14.1297V14.1612L7.2419 14.1628L7.2383 16.3703H18.681L18.681 14.1604L20.0133 14.1604ZM10.7571 22.8831C11.3069 22.8402 11.7877 23.2489 11.835 23.7973L11.8352 23.799C11.8357 23.8042 11.8371 23.8162 11.8397 23.834C11.845 23.8699 11.8548 23.9276 11.8718 23.9994C11.9067 24.1473 11.9666 24.3324 12.0633 24.5074C12.236 24.8198 12.5074 25.0987 13.115 25.0987C13.7226 25.0987 13.994 24.8198 14.1667 24.5074C14.2635 24.3324 14.3234 24.1473 14.3583 23.9994C14.3753 23.9276 14.3851 23.8699 14.3903 23.834C14.3929 23.8162 14.3943 23.8042 14.3949 23.799L14.3951 23.7973C14.4423 23.2489 14.9232 22.8402 15.473 22.8831C16.0255 22.9262 16.4385 23.4091 16.3953 23.9617L15.3949 23.8836C16.3953 23.9617 16.3953 23.9621 16.3953 23.9626L16.3952 23.9636L16.395 23.9658L16.3946 23.9707L16.3935 23.9832C16.3926 23.9926 16.3914 24.0042 16.3899 24.0179C16.3869 24.0452 16.3826 24.0809 16.3763 24.1237C16.3639 24.2092 16.3437 24.3248 16.3115 24.461C16.2481 24.7292 16.1331 25.0987 15.9232 25.4784C15.4826 26.2754 14.6141 27.1057 13.115 27.1057C11.616 27.1057 10.7474 26.2754 10.3069 25.4784C10.097 25.0987 9.98192 24.7292 9.91855 24.461C9.88637 24.3248 9.8662 24.2092 9.85374 24.1238C9.84749 24.0809 9.84311 24.0452 9.84012 24.0179C9.83862 24.0042 9.83746 23.9926 9.83658 23.9832L9.83546 23.9707L9.83505 23.9658L9.83487 23.9636L9.83479 23.9626C9.83475 23.9621 9.83472 23.9617 10.8352 23.8836L9.83472 23.9617C9.79159 23.4091 10.2045 22.9262 10.7571 22.8831Z" fill="#094817"/>
</svg>
